# xmcd
#
# Track frame offsets:
#	150
#	4330
#	13067
#	25122
#	33247
#	43675
#	53975
#	61045
#	66827
#	93352
#	121865
#	127227
#	136827
#	151340
#	158722
#	163360
#	167162
#	180727
#	190340
#	193665
#	194752
#	216412
#	233647
#	238075
#	244180
#	249517
#	254330
#	259447
#	265180
#	271025
#	275132
#	279595
#
# Disc length: 3804 seconds
#
# Revision: 0
# Processed by: cddbd v1.5.1PL0 Copyright (c) Steve Scherf et al.
# Submitted via: dBpowerAMP V4.0
#
DISCID=df0eda20
DTITLE=John Sebastian - John Sebastian Teaches Blues Harmonica
DYEAR=1996
DGENRE=Music Instruction
TTITLE0=Introduction
TTITLE1=Holding The Harmonica
TTITLE2=Whistle Blow Technique
TTITLE3=Tongue Blocking Techniques
TTITLE4=Breathing Explanation
TTITLE5=Out-Harp Playing (1st Position)
TTITLE6="Cowboy" Harmonica
TTITLE7=Streets Of Laredo
TTITLE8=Basic Chord Theory (I, IV, V7) - Cross Harp (Tonic Inhaled)
TTITLE9=Bending Notes (Inhaled and Exhaled) - Blues Lick
TTITLE10=Blues In G Explanation
TTITLE11=Jimmy Reed-esque Simple Blues
TTITLE12=Bending Techniques
TTITLE13=Simple Blues In G - Bend and Slide Down
TTITLE14=Simple Blues In G - Bend and Slide Up
TTITLE15=12-Bar Blues
TTITLE16=Double Note Bending - Country Fiddle Lick
TTITLE17=Vibrato Technique
TTITLE18=Whistle Embochure Explanation
TTITLE19=Oh! Susanna
TTITLE20=Glottis-Tonguing Technique - Blues Lick In G - Glottis Growl Technique
TTITLE21=Playing In Minor Keys - Playing In E Minor
TTITLE22=Plaintive Melody In E Minor
TTITLE23=Finding The Relative Minor
TTITLE24=50's Style E Minor Melody
TTITLE25=Technique Solo
TTITLE26=Rhythm Harmonica Explanation
TTITLE27=Fox Chase Rhythm
TTITLE28=Fox Chase Techniques
TTITLE29=Waltz Time
TTITLE30=Chord and Note Solo
TTITLE31=Outro Solo
EXTD=
EXTT0=
EXTT1=
EXTT2=
EXTT3=
EXTT4=
EXTT5=
EXTT6=
EXTT7=
EXTT8=
EXTT9=
EXTT10=
EXTT11=
EXTT12=
EXTT13=
EXTT14=
EXTT15=
EXTT16=
EXTT17=
EXTT18=
EXTT19=
EXTT20=
EXTT21=
EXTT22=
EXTT23=
EXTT24=
EXTT25=
EXTT26=
EXTT27=
EXTT28=
EXTT29=
EXTT30=
EXTT31=
PLAYORDER=
